<?xml version="1.0" encoding="utf-8"?>
<!-- Generator: Adobe Illustrator 25.3.1, SVG Export Plug-In . SVG Version: 6.00 Build 0)  -->
<svg version="1.1" id="Layer_1" xmlns="http://www.w3.org/2000/svg" xmlns:xlink="http://www.w3.org/1999/xlink" x="0px" y="0px"
	 viewBox="0 0 100 100" enable-background="new 0 0 100 100" xml:space="preserve">
<g>
	<path fill="#0041FF" d="M32.2,0.4h16.1h19.5c17.8,0,32.2,14.4,32.2,32.2v34.7c0,17.8-14.4,32.2-32.2,32.2H32.2
		C14.4,99.8,0,85.4,0,67.4V32.6C0,14.8,14.4,0.4,32.2,0.4z"/>
	<path fill-rule="evenodd" clip-rule="evenodd" fill="#FFFFFF" d="M50.4,32.8c9.7,0,17.6,7.8,17.6,17.6s-7.8,17.8-17.6,17.8
		s-17.6-7.8-17.6-17.6S40.7,32.8,50.4,32.8z"/>
	<path fill-rule="evenodd" clip-rule="evenodd" fill="#FFFFFF" d="M16.9,53.2c3.6,0,6.4,2.8,6.4,6.4s-2.8,6.4-6.4,6.4
		s-6.4-2.8-6.4-6.4C10.6,56.1,13.3,53.2,16.9,53.2z"/>
	<path fill-rule="evenodd" clip-rule="evenodd" fill="#FFFFFF" d="M62.3,6.8c6.1,0,11.2,5.1,11.2,11.2s-5.1,11.2-11.2,11.2
		c-6.1,0-11.2-5.1-11.2-11.2C51.3,11.9,56.1,6.8,62.3,6.8z"/>
	<path fill-rule="evenodd" clip-rule="evenodd" fill="#FFFFFF" d="M65.5,72.7c5.1,0,9.1,4,9.1,9.1c0,5.1-4,9.1-9.1,9.1
		s-9.1-4-9.1-9.1C56.1,76.9,60.4,72.7,65.5,72.7z"/>
</g>
</svg>
