<?xml version="1.0" encoding="utf-8"?>
<!-- Generator: Adobe Illustrator 25.3.1, SVG Export Plug-In . SVG Version: 6.00 Build 0)  -->
<svg version="1.1" id="Layer_2" xmlns="http://www.w3.org/2000/svg" xmlns:xlink="http://www.w3.org/1999/xlink" x="0px" y="0px"
	 viewBox="0 0 144 144" enable-background="new 0 0 144 144" xml:space="preserve">
<polygon fill="#EC7E00" points="0,144 0,36 9,36 9,27 18,27 18,18 27,18 27,9 36,9 36,0 108,0 108,9 117,9 117,18 126,18 126,27 
	135,27 135,36 144,36 144,108 135,108 135,117 126,117 126,126 117,126 117,135 108,135 108,144 "/>
<polygon fill="#FFCD00" points="9,135 9,45 18,45 18,36 27,36 27,27 36,27 36,18 45,18 45,9 99,9 99,18 108,18 108,27 117,27 
	117,36 126,36 126,45 135,45 135,99 126,99 126,108 117,108 117,117 108,117 108,126 99,126 99,135 "/>
<polygon points="0,144 0,108 9,108 9,90 18,90 18,81 27,81 27,63 36,63 36,36 45,36 45,27 54,27 54,18 90,18 90,27 99,27 99,36 
	117,36 117,45 126,45 126,72 99,72 99,63 81,63 81,72 90,72 90,81 99,81 99,90 108,90 108,99 81,99 81,90 72,90 72,81 63,81 63,90 
	54,90 54,108 72,108 72,117 81,117 81,126 63,126 63,117 45,117 45,144 "/>
<rect x="72" y="36" fill="#FFFFFF" width="9" height="9"/>
<rect x="108" y="54" fill="#6C6C6C" width="9" height="9"/>
</svg>
