<?xml version="1.0" encoding="utf-8"?>
<!-- Generator: Adobe Illustrator 25.3.1, SVG Export Plug-In . SVG Version: 6.00 Build 0)  -->
<svg version="1.1" id="Layer_1" xmlns="http://www.w3.org/2000/svg" xmlns:xlink="http://www.w3.org/1999/xlink" x="0px" y="0px"
	 viewBox="0 0 499.1 499.1" enable-background="new 0 0 499.1 499.1" xml:space="preserve">
<g>
	
		<linearGradient id="SVGID_1_" gradientUnits="userSpaceOnUse" x1="246.237" y1="1472.0679" x2="250.966" y2="2024.5808" gradientTransform="matrix(1 0 0 1 0 -1558)">
		<stop  offset="0.3867" style="stop-color:#00386B"/>
		<stop  offset="1" style="stop-color:#00E0B5"/>
	</linearGradient>
	<path fill="url(#SVGID_1_)" d="M249.5,466.4c-5.1,0-10.2-0.2-15.2-0.7c-1.1-0.1-2.2-0.2-3.3-0.3c-0.5,0-1-0.1-1.5-0.2h-0.3
		c-0.2,0-0.3,0-0.5-0.1l-0.8-0.1l-0.8-0.1H227c-2.3-0.3-4.5-0.6-6.7-1c-0.3,0-0.7-0.1-1-0.2c-0.7-0.1-1.4-0.2-2.2-0.4
		c-4.6-0.9-9.3-1.9-13.8-3.1c-1.7-0.5-3.4-0.9-5-1.4c-1.2-0.4-2.4-0.7-3.6-1.1c-0.8-0.3-1.7-0.6-2.6-0.9c-1.3-0.5-2.7-0.9-4-1.4
		c-1.4-0.5-2.8-1.1-4.2-1.6C96.2,418.8,51.4,321,82.2,231.7c0.6-1.9,1.4-3.8,2.1-5.7c1.9-4.9,4-9.8,6.3-14.5c1.7-3.5,3.6-7,5.6-10.5
		c1-1.7,2.1-3.5,3.2-5.2c2.7-4.4,5.7-8.7,8.8-12.8c1.9-2.5,3.9-5,5.9-7.5c3.3-4,6.9-7.8,10.5-11.5h0.1c1.5-1.5,3-2.9,4.5-4.3
		c67.6-62.7,172.1-63,240-0.6c1.6,1.4,3.1,2.9,4.5,4.3c3.8,3.7,7.4,7.6,10.8,11.6c2.1,2.5,4.1,5,6,7.5c3.1,4.1,6.1,8.5,8.9,12.9
		c1.2,1.8,2.3,3.7,3.3,5.5c1.9,3.4,3.8,6.9,5.5,10.3c2.3,4.8,4.5,9.7,6.4,14.7c0.7,1.9,1.4,3.9,2.1,5.8
		c30.7,89-13.7,186.4-101,221.7c-1.4,0.6-2.9,1.1-4.3,1.7c-1.4,0.5-2.9,1-4.3,1.6c-0.8,0.3-1.5,0.5-2.2,0.7
		c-1.2,0.4-2.4,0.8-3.7,1.2c-6.3,1.9-12.6,3.5-19.1,4.7c-0.7,0.1-1.5,0.3-2.2,0.4c-0.1,0-0.5,0.1-0.5,0.1h-0.1
		c-2.2,0.4-4.5,0.7-6.7,1l-0.8,0.1c-0.3,0-0.6,0.1-0.9,0.1l-0.8,0.1l-1.7,0.2c-1.2,0.1-2.4,0.2-3.5,0.3
		C259.8,466,254.7,466.4,249.5,466.4L249.5,466.4L249.5,466.4z"/>
	<g>
		
			<linearGradient id="SVGID_2_" gradientUnits="userSpaceOnUse" x1="199.2" y1="1776.8199" x2="199.2" y2="2058.3721" gradientTransform="matrix(1 0 0 1 0 -1558)">
			<stop  offset="0" style="stop-color:#00E0A4"/>
			<stop  offset="1" style="stop-color:#00182E"/>
		</linearGradient>
		<path fill="url(#SVGID_2_)" d="M217.2,463.4c-4.7-0.9-9.3-1.9-13.8-3.1c-1.7-0.5-3.3-0.9-5-1.4c-1.2-0.4-2.4-0.7-3.6-1.1
			c-0.9-0.3-1.7-0.6-2.6-0.9c-1.3-0.5-2.7-0.9-4-1.4c-1.4-0.5-2.8-1.1-4.2-1.6l-2.8-52l6.1-29.3l29.6,89.9L217.2,463.4z"/>
		
			<linearGradient id="SVGID_3_" gradientUnits="userSpaceOnUse" x1="300.6" y1="-179217.3438" x2="300.6" y2="-21773.8496" gradientTransform="matrix(1 0 0 1 0 -1558)">
			<stop  offset="0" style="stop-color:#00E0A4"/>
			<stop  offset="1" style="stop-color:#00182E"/>
		</linearGradient>
		<path fill="url(#SVGID_3_)" d="M318.9,401.9l-3,51.7c-1.4,0.6-2.8,1.1-4.3,1.7c-1.4,0.5-2.9,1.1-4.3,1.5c-0.7,0.2-1.4,0.5-2.2,0.7
			c-1.2,0.4-2.5,0.8-3.7,1.2c-6.3,1.9-12.7,3.5-19.1,4.7l0.1-0.3V463l29.9-91.8L318.9,401.9z"/>
		
			<linearGradient id="SVGID_4_" gradientUnits="userSpaceOnUse" x1="248.95" y1="2071.719" x2="248.95" y2="1870.762" gradientTransform="matrix(1 0 0 1 0 -1558)">
			<stop  offset="0" style="stop-color:#00E0B5"/>
			<stop  offset="1" style="stop-color:#000B08"/>
		</linearGradient>
		<path fill="url(#SVGID_4_)" d="M288.8,439.2l-16,25.7l-0.8,0.1c-0.3,0-0.6,0.1-0.9,0.1c-0.2,0-0.5,0.1-0.8,0.1l-1.7,0.2
			c-1.2,0.1-2.4,0.2-3.5,0.3c-5.1,0.4-10.2,0.7-15.3,0.7h-0.3c-5.1,0-10.2-0.2-15.2-0.7c-1.1-0.1-2.2-0.2-3.3-0.3
			c-0.5,0-1-0.1-1.5-0.2l-0.8-0.1l-0.8-0.1L227,465l-16-25.8l-3.5-63l16.8,45.6l20,3.6H257l19-3.7l14.4-43.8L288.8,439.2z"/>
		
			<linearGradient id="SVGID_5_" gradientUnits="userSpaceOnUse" x1="276.7814" y1="1817.2383" x2="303.3264" y2="1848.0234" gradientTransform="matrix(1 0 0 1 0 -1558)">
			<stop  offset="0" style="stop-color:#00917B"/>
			<stop  offset="1" style="stop-color:#00BD86"/>
		</linearGradient>
		<path fill="url(#SVGID_5_)" d="M273.1,261.5l25.5,14.7l0.1,16.9L273.1,261.5z"/>
		
			<linearGradient id="SVGID_6_" gradientUnits="userSpaceOnUse" x1="359.9767" y1="1824.9122" x2="384.4327" y2="1842.5773" gradientTransform="matrix(1 0 0 1 0 -1558)">
			<stop  offset="0" style="stop-color:#004F75"/>
			<stop  offset="1" style="stop-color:#006186"/>
		</linearGradient>
		<path fill="url(#SVGID_6_)" d="M362.4,268.6l17.7-4.3l-8.3,28.2L362.4,268.6z"/>
		
			<linearGradient id="SVGID_7_" gradientUnits="userSpaceOnUse" x1="293.6663" y1="1869.74" x2="347.5333" y2="1825.756" gradientTransform="matrix(1 0 0 1 0 -1558)">
			<stop  offset="0" style="stop-color:#00E0A3"/>
			<stop  offset="1" style="stop-color:#00298F"/>
		</linearGradient>
		<path fill="url(#SVGID_7_)" d="M298.6,292.9l2.6,27.4l12.5-18.2l14.7-23.2L298.6,292.9z"/>
		
			<linearGradient id="SVGID_8_" gradientUnits="userSpaceOnUse" x1="317.7409" y1="1872.8983" x2="408.7469" y2="1798.5903" gradientTransform="matrix(1 0 0 1 0 -1558)">
			<stop  offset="0" style="stop-color:#00E094"/>
			<stop  offset="1" style="stop-color:#000051"/>
		</linearGradient>
		<path fill="url(#SVGID_8_)" d="M362.4,268.6l-21,5.5l-13.1,4.8l-14.7,23.2l-12.5,18.2l17.3,0.9l32.5-6.1l20.8-22.7L362.4,268.6z"
			/>
		
			<linearGradient id="SVGID_9_" gradientUnits="userSpaceOnUse" x1="305.9765" y1="1882.756" x2="290.1035" y2="1887.257" gradientTransform="matrix(1 0 0 1 0 -1558)">
			<stop  offset="0" style="stop-color:#005773"/>
			<stop  offset="1" style="stop-color:#003B1B"/>
		</linearGradient>
		<path fill="url(#SVGID_9_)" d="M288.8,330.9l12.4-10.5l3.6,10.5H288.8z"/>
		
			<linearGradient id="SVGID_10_" gradientUnits="userSpaceOnUse" x1="307.9757" y1="1875.5398" x2="312.3125" y2="1885.7025" gradientTransform="matrix(1 0 0 1 0 -1558)">
			<stop  offset="0" style="stop-color:#00E094"/>
			<stop  offset="1" style="stop-color:#000051"/>
		</linearGradient>
		<path fill="url(#SVGID_10_)" d="M301.2,320.4l17.3,0.9l-13.7,9.6L301.2,320.4z"/>
		
			<linearGradient id="SVGID_11_" gradientUnits="userSpaceOnUse" x1="291.6129" y1="1888.7762" x2="304.228" y2="1906.0302" gradientTransform="matrix(1 0 0 1 0 -1558)">
			<stop  offset="0" style="stop-color:#000700"/>
			<stop  offset="1" style="stop-color:#002B16"/>
		</linearGradient>
		<path fill="url(#SVGID_11_)" d="M288.8,330.9h16l-17.2,12.4L288.8,330.9z"/>
		
			<linearGradient id="SVGID_12_" gradientUnits="userSpaceOnUse" x1="263.8677" y1="1832.3636" x2="302.5417" y2="1861.2317" gradientTransform="matrix(1 0 0 1 0 -1558)">
			<stop  offset="0" style="stop-color:#00ABB5"/>
			<stop  offset="1" style="stop-color:#00AD95"/>
		</linearGradient>
		<path fill="url(#SVGID_12_)" d="M273.1,261.5l25.6,31.6L283,308.4L273.1,261.5z"/>
		
			<linearGradient id="SVGID_13_" gradientUnits="userSpaceOnUse" x1="281.2116" y1="1869.1279" x2="302.0046" y2="1890.9519" gradientTransform="matrix(1 0 0 1 0 -1558)">
			<stop  offset="0" style="stop-color:#00C77A"/>
			<stop  offset="1" style="stop-color:#00C797"/>
		</linearGradient>
		<path fill="url(#SVGID_13_)" d="M288.8,330.9l12.4-10.5l-18.4-12L288.8,330.9z"/>
		
			<linearGradient id="SVGID_14_" gradientUnits="userSpaceOnUse" x1="282.2488" y1="1849.7802" x2="306.1528" y2="1874.8682" gradientTransform="matrix(1 0 0 1 0 -1558)">
			<stop  offset="0" style="stop-color:#00D4B0"/>
			<stop  offset="1" style="stop-color:#00A1B5"/>
		</linearGradient>
		<path fill="url(#SVGID_14_)" d="M298.6,292.9l2.6,27.4l-18.4-12L298.6,292.9z"/>
		
			<linearGradient id="SVGID_15_" gradientUnits="userSpaceOnUse" x1="225.0482" y1="1933.0944" x2="296.0542" y2="1875.1194" gradientTransform="matrix(1 0 0 1 0 -1558)">
			<stop  offset="0" style="stop-color:#00E088"/>
			<stop  offset="1" style="stop-color:#00E0B5"/>
		</linearGradient>
		<path fill="url(#SVGID_15_)" d="M282.9,308.4l-15.3,45.7l20.1-10.8l1.1-12.5L282.9,308.4z"/>
		
			<linearGradient id="SVGID_16_" gradientUnits="userSpaceOnUse" x1="262.0652" y1="1941.0245" x2="304.3712" y2="1901.9727" gradientTransform="matrix(1 0 0 1 0 -1558)">
			<stop  offset="0" style="stop-color:#00E094"/>
			<stop  offset="1" style="stop-color:#00E0B5"/>
		</linearGradient>
		<path fill="url(#SVGID_16_)" d="M284.2,358.6l3.5-15.3l-20.1,10.8l8.7,24.6l13,2.9L284.2,358.6z"/>
		
			<linearGradient id="SVGID_17_" gradientUnits="userSpaceOnUse" x1="33868.6836" y1="-15264.373" x2="39653.2852" y2="-18231.4531" gradientTransform="matrix(1 0 0 1 0 -1558)">
			<stop  offset="0" style="stop-color:#00C77A"/>
			<stop  offset="1" style="stop-color:#00C797"/>
		</linearGradient>
		<path fill="url(#SVGID_17_)" d="M273.1,396.1l-12.8,18.8l-3.2,10.5l19-3.7L273.1,396.1z"/>
		
			<linearGradient id="SVGID_18_" gradientUnits="userSpaceOnUse" x1="225.7521" y1="1819.1538" x2="196.5706" y2="1846.636" gradientTransform="matrix(1 0 0 1 0 -1558)">
			<stop  offset="0" style="stop-color:#00917B"/>
			<stop  offset="1" style="stop-color:#00BD86"/>
		</linearGradient>
		<path fill="url(#SVGID_18_)" d="M200.8,293.1l-0.1-16.9l25.4-14.8L200.8,293.1z"/>
		
			<linearGradient id="SVGID_19_" gradientUnits="userSpaceOnUse" x1="137.7973" y1="1829.6058" x2="121.0114" y2="1837.8794" gradientTransform="matrix(1 0 0 1 0 -1558)">
			<stop  offset="0" style="stop-color:#004F75"/>
			<stop  offset="1" style="stop-color:#006186"/>
		</linearGradient>
		<path fill="url(#SVGID_19_)" d="M127.5,292.9l-8.8-28.2l17.8,4.3L127.5,292.9z"/>
		
			<linearGradient id="SVGID_20_" gradientUnits="userSpaceOnUse" x1="204.2885" y1="1867.71" x2="165.9643" y2="1845.6805" gradientTransform="matrix(1 0 0 1 0 -1558)">
			<stop  offset="0" style="stop-color:#00E0A3"/>
			<stop  offset="1" style="stop-color:#00298F"/>
		</linearGradient>
		<path fill="url(#SVGID_20_)" d="M200.8,293.1l-2.8,27.5l-12.3-18.2l-15-23.1L200.8,293.1z"/>
		
			<linearGradient id="SVGID_21_" gradientUnits="userSpaceOnUse" x1="188.8651" y1="1887.1918" x2="134.7416" y2="1828.6764" gradientTransform="matrix(1 0 0 1 0 -1558)">
			<stop  offset="0" style="stop-color:#00E094"/>
			<stop  offset="1" style="stop-color:#000051"/>
		</linearGradient>
		<path fill="url(#SVGID_21_)" d="M136.5,269l21.1,5.5l13.2,4.8l15,23.1l12.3,18.2l-16.8,1l-32.7-6L127.4,293L136.5,269z"/>
		
			<linearGradient id="SVGID_22_" gradientUnits="userSpaceOnUse" x1="12505.1426" y1="10372.959" x2="13659.1348" y2="11168.8545" gradientTransform="matrix(1 0 0 1 0 -1558)">
			<stop  offset="0" style="stop-color:#005773"/>
			<stop  offset="1" style="stop-color:#003B1B"/>
		</linearGradient>
		<path fill="url(#SVGID_22_)" d="M195.1,331.1l3-10.5l13.1,10.4L195.1,331.1z"/>
		
			<linearGradient id="SVGID_23_" gradientUnits="userSpaceOnUse" x1="191.8883" y1="1875.9255" x2="187.5684" y2="1885.8512" gradientTransform="matrix(1 0 0 1 0 -1558)">
			<stop  offset="0" style="stop-color:#00E094"/>
			<stop  offset="1" style="stop-color:#000051"/>
		</linearGradient>
		<path fill="url(#SVGID_23_)" d="M195.1,331.1l-13.8-9.5l16.8-1L195.1,331.1z"/>
		
			<linearGradient id="SVGID_24_" gradientUnits="userSpaceOnUse" x1="207.7148" y1="1887.2983" x2="202.9636" y2="1896.7085" gradientTransform="matrix(1 0 0 1 0 -1558)">
			<stop  offset="0" style="stop-color:#000700"/>
			<stop  offset="1" style="stop-color:#002B16"/>
		</linearGradient>
		<path fill="url(#SVGID_24_)" d="M212.4,343.4L195,331l16.1-0.1L212.4,343.4z"/>
		
			<linearGradient id="SVGID_25_" gradientUnits="userSpaceOnUse" x1="234.023" y1="1837.3823" x2="201.2135" y2="1851.9838" gradientTransform="matrix(1 0 0 1 0 -1558)">
			<stop  offset="0" style="stop-color:#00ABB5"/>
			<stop  offset="1" style="stop-color:#00AD95"/>
		</linearGradient>
		<path fill="url(#SVGID_25_)" d="M216.8,308.5l-16-15.4l25.2-31.7L216.8,308.5z"/>
		
			<linearGradient id="SVGID_26_" gradientUnits="userSpaceOnUse" x1="220.0226" y1="1870.1719" x2="203.5766" y2="1884.8051" gradientTransform="matrix(1 0 0 1 0 -1558)">
			<stop  offset="0" style="stop-color:#00C77A"/>
			<stop  offset="1" style="stop-color:#00C797"/>
		</linearGradient>
		<path fill="url(#SVGID_26_)" d="M216.8,308.5l-18.7,12.1l13.1,10.4L216.8,308.5z"/>
		
			<linearGradient id="SVGID_27_" gradientUnits="userSpaceOnUse" x1="210.3089" y1="1857.7712" x2="192.4345" y2="1870.9879" gradientTransform="matrix(1 0 0 1 0 -1558)">
			<stop  offset="0" style="stop-color:#00D4B0"/>
			<stop  offset="1" style="stop-color:#00A1B5"/>
		</linearGradient>
		<path fill="url(#SVGID_27_)" d="M216.8,308.5l-18.7,12.1l2.8-27.5L216.8,308.5z"/>
		
			<linearGradient id="SVGID_28_" gradientUnits="userSpaceOnUse" x1="237.6051" y1="1893.6486" x2="210.7581" y2="1884.8395" gradientTransform="matrix(1 0 0 1 0 -1558)">
			<stop  offset="0" style="stop-color:#00E088"/>
			<stop  offset="1" style="stop-color:#00E0B5"/>
		</linearGradient>
		<path fill="url(#SVGID_28_)" d="M216.8,308.5l14.8,45.4l-19.2-10.5l-1.3-12.5L216.8,308.5z"/>
		
			<linearGradient id="SVGID_29_" gradientUnits="userSpaceOnUse" x1="238.2865" y1="1934.9285" x2="231.4462" y2="1955.5327" gradientTransform="matrix(1 0 0 1 0 -1558)">
			<stop  offset="0" style="stop-color:#00E094"/>
			<stop  offset="1" style="stop-color:#00E0B5"/>
		</linearGradient>
		<path fill="url(#SVGID_29_)" d="M227.7,396.2l-3.5-17.4l26.2,2.1L227.7,396.2z"/>
		
			<linearGradient id="SVGID_30_" gradientUnits="userSpaceOnUse" x1="43160.6914" y1="-22791.5723" x2="52255.4883" y2="-28025.0723" gradientTransform="matrix(1 0 0 1 0 -1558)">
			<stop  offset="0" style="stop-color:#00E094"/>
			<stop  offset="1" style="stop-color:#00E0B5"/>
		</linearGradient>
		<path fill="url(#SVGID_30_)" d="M212.4,343.4l4.2,14.5l-7.3,24.3l14.9-3.4l7.4-24.9L212.4,343.4z"/>
		
			<linearGradient id="SVGID_31_" gradientUnits="userSpaceOnUse" x1="247.1043" y1="1978.4253" x2="221.9282" y2="1964.8828" gradientTransform="matrix(1 0 0 1 0 -1558)">
			<stop  offset="0" style="stop-color:#00C77A"/>
			<stop  offset="1" style="stop-color:#00C797"/>
		</linearGradient>
		<path fill="url(#SVGID_31_)" d="M227.7,396.2l12.4,18.8l4.3,10.5l-20-3.6L227.7,396.2z"/>
		
			<linearGradient id="SVGID_32_" gradientUnits="userSpaceOnUse" x1="14103.4014" y1="-22287.293" x2="14928.6006" y2="-23732.5645" gradientTransform="matrix(1 0 0 1 0 -1558)">
			<stop  offset="0" style="stop-color:#00C77A"/>
			<stop  offset="1" style="stop-color:#00C797"/>
		</linearGradient>
		<path fill="url(#SVGID_32_)" d="M260.3,414.9l-10-1l0,0h-0.1h-0.1l0,0l-10,1.1l4.3,10.5h12.7L260.3,414.9z"/>
		
			<linearGradient id="SVGID_33_" gradientUnits="userSpaceOnUse" x1="271.6497" y1="1956" x2="229.7467" y2="1956" gradientTransform="matrix(1 0 0 1 0 -1558)">
			<stop  offset="0" style="stop-color:#004D45"/>
			<stop  offset="0.11" style="stop-color:#003630"/>
			<stop  offset="0.24" style="stop-color:#00221E"/>
			<stop  offset="0.37" style="stop-color:#001613"/>
			<stop  offset="0.5" style="stop-color:#00120F"/>
			<stop  offset="0.67" style="stop-color:#001512"/>
			<stop  offset="0.78" style="stop-color:#001E1A"/>
			<stop  offset="0.88" style="stop-color:#002D28"/>
			<stop  offset="0.97" style="stop-color:#00423B"/>
			<stop  offset="1" style="stop-color:#004D45"/>
		</linearGradient>
		<path fill="url(#SVGID_33_)" d="M273.1,396.1l-22.7-15v-0.2l-0.1,0.1l-0.1-0.1v0.2l-22.5,15.1l12.4,18.8l10.1-1.1l10.1,1
			L273.1,396.1z"/>
		
			<linearGradient id="SVGID_34_" gradientUnits="userSpaceOnUse" x1="249.85" y1="1936.302" x2="249.85" y2="1867.774" gradientTransform="matrix(1 0 0 1 0 -1558)">
			<stop  offset="0" style="stop-color:#00C584"/>
			<stop  offset="1" style="stop-color:#00E0A9"/>
		</linearGradient>
		<path fill="url(#SVGID_34_)" d="M267.6,354.1l15.3-45.7l-33,2l-33.1-1.9l14.8,45.4l-7.4,24.9l26,2l0,0h0.1h0.1l0,0l25.9-2.2
			L267.6,354.1z"/>
		
			<linearGradient id="SVGID_35_" gradientUnits="userSpaceOnUse" x1="249.563" y1="1873.7245" x2="252.344" y2="1804.2054" gradientTransform="matrix(1 0 0 1 0 -1558)">
			<stop  offset="0" style="stop-color:#00C7B5"/>
			<stop  offset="1" style="stop-color:#00ABB5"/>
		</linearGradient>
		<path fill="url(#SVGID_35_)" d="M250,310.4l32.9-2l-9.8-47l-23.6,5.5l-23.4-5.4l-9.3,47.1l32.9,1.9l0,0h0.1h0.2V310.4z"/>
		
			<linearGradient id="SVGID_36_" gradientUnits="userSpaceOnUse" x1="281.2" y1="1981.3459" x2="281.2" y2="1934.343" gradientTransform="matrix(1 0 0 1 0 -1558)">
			<stop  offset="0" style="stop-color:#007F9B"/>
			<stop  offset="1" style="stop-color:#00C693"/>
		</linearGradient>
		<path fill="url(#SVGID_36_)" d="M276.3,378.8l-3.2,17.4l2.9,25.5l13.3-40.1L276.3,378.8z"/>
		
			<linearGradient id="SVGID_37_" gradientUnits="userSpaceOnUse" x1="218.5" y1="-29941.75" x2="218.5" y2="-41516.75" gradientTransform="matrix(1 0 0 1 0 -1558)">
			<stop  offset="0" style="stop-color:#007F9B"/>
			<stop  offset="1" style="stop-color:#00C693"/>
		</linearGradient>
		<path fill="url(#SVGID_37_)" d="M224.2,378.9l-14.9,3.4l15.1,39.6l3.3-25.6L224.2,378.9z"/>
		
			<linearGradient id="SVGID_38_" gradientUnits="userSpaceOnUse" x1="244.0183" y1="1947.5635" x2="171.1973" y2="1888.8254" gradientTransform="matrix(1 0 0 1 0 -1558)">
			<stop  offset="0" style="stop-color:#00C696"/>
			<stop  offset="1" style="stop-color:#00959B"/>
		</linearGradient>
		<path fill="url(#SVGID_38_)" d="M224.2,378.9l-14.9,3.4L195.1,331l17.4,12.4l11.4,14.5L224.2,378.9z"/>
		
			<linearGradient id="SVGID_39_" gradientUnits="userSpaceOnUse" x1="62178.1055" y1="-25064.6426" x2="80350.5078" y2="-32987.4414" gradientTransform="matrix(1 0 0 1 0 -1558)">
			<stop  offset="0" style="stop-color:#00C696"/>
			<stop  offset="1" style="stop-color:#00959B"/>
		</linearGradient>
		<path fill="url(#SVGID_39_)" d="M276.3,378.8l13,2.9l15.5-50.8l-17.2,12.4L276.7,360L276.3,378.8z"/>
		
			<linearGradient id="SVGID_40_" gradientUnits="userSpaceOnUse" x1="262.2866" y1="1934.8573" x2="269.26" y2="1955.4514" gradientTransform="matrix(1 0 0 1 0 -1558)">
			<stop  offset="0" style="stop-color:#00E094"/>
			<stop  offset="1" style="stop-color:#00E0B5"/>
		</linearGradient>
		<path fill="url(#SVGID_40_)" d="M250.2,380.9l26.2-2.2l-3.2,17.4L250.2,380.9z"/>
		
			<linearGradient id="SVGID_41_" gradientUnits="userSpaceOnUse" x1="-1273.2975" y1="-8614.2754" x2="-1167.2975" y2="-7879.8765" gradientTransform="matrix(1 0 0 1 0 -1558)">
			<stop  offset="0" style="stop-color:#00E094"/>
			<stop  offset="1" style="stop-color:#00E0B5"/>
		</linearGradient>
		<path fill="url(#SVGID_41_)" d="M239.3,388.1h23.3l-12.5-7.2L239.3,388.1z"/>
		
			<linearGradient id="SVGID_42_" gradientUnits="userSpaceOnUse" x1="386.2" y1="-386553.3438" x2="386.2" y2="-873124.375" gradientTransform="matrix(1 0 0 1 0 -1558)">
			<stop  offset="0" style="stop-color:#00E094"/>
			<stop  offset="1" style="stop-color:#000051"/>
		</linearGradient>
		<path fill="url(#SVGID_42_)" d="M432.6,230.5l-9.9,3.8l-2.4-2.3l0.8-6l44-48.8l34.1-69.6l-6.6-1.7L464.3,161l0.8-8.8l9.8-62.4
			l-7.3-55.3l-6.2-1.8L464,81l-17.4,82.3l-22.3,30.2l-2.6-20.2l14.5-35.9l3-48.9l-5.1-0.2l-3.7,35.2l-13.5,33.2l-5.5,5.1l-3.6-6.1
			l-0.6-35.5l-5.3,0.5l-1.5,44.4l1.5,37.4l-16.1,13.9l-30.6,13.7l-22.4,2.8l24.8-32.8l-1.6-18.6l-2.2,0.2l-1.8,8.2l-35.2,46.8
			l-18.6,5l-25,20l25.4,14.5l11.4-13.7l11.9-3.3l25.2-4.5l15.1-2.7l27.8-1.6l31.3-1.8l50.9-37.7l-4-6.2L432.6,230.5z"/>
		
			<linearGradient id="SVGID_43_" gradientUnits="userSpaceOnUse" x1="113.05" y1="-385025.3438" x2="113.05" y2="-869687.375" gradientTransform="matrix(1 0 0 1 0 -1558)">
			<stop  offset="0" style="stop-color:#00E094"/>
			<stop  offset="1" style="stop-color:#000051"/>
		</linearGradient>
		<path fill="url(#SVGID_43_)" d="M181.8,236.8l-35.4-46.7l-1.9-8.2l-2.2-0.2l-1.5,18.5l24.9,32.8l-22.3-2.8l-30.5-13.7l-16.1-13.9
			l1.2-37.2l-1.7-44.2l-5.3-0.6l-0.4,35.3l-3.5,6.1l-5.5-5L68,124l-3.9-35.1l-5,0.2l3.3,48.7L77,173.6l-2.5,20.1l-22.3-30L34.5,81.8
			l2.3-48l-6,1.8l-6.9,55l10.2,62l0.8,8.7L6.5,106.6L0,108.3l34.1,69.2L78,226l0.8,6l-2.4,2.3l-9.8-3.8l-35.5-25.8l-3.9,6.2
			l50.7,37.6l31.1,1.9l27.6,1.7l15,2.7l25.2,4.5l11.8,3.3l12.1,13.7l25.4-14.8l-25.7-19.8L181.8,236.8z"/>
		
			<linearGradient id="SVGID_44_" gradientUnits="userSpaceOnUse" x1="207.55" y1="2036.171" x2="207.55" y2="1894.34" gradientTransform="matrix(1 0 0 1 0 -1558)">
			<stop  offset="0" style="stop-color:#00E0AB"/>
			<stop  offset="1" style="stop-color:#00182E"/>
		</linearGradient>
		<path fill="url(#SVGID_44_)" d="M227.9,465.1L227,465c-2.3-0.3-4.5-0.6-6.7-1c-0.3-0.1-0.7-0.1-1-0.2l-2.2-0.4
			c-4.7-0.9-9.3-1.9-13.8-3.1c-1.7-0.5-3.3-0.9-5-1.4c-1.2-0.4-2.4-0.7-3.6-1.1l-5.1-25.4l-2.4-59.9l7.8-41.4l14.2,51.2l1.8,57
			L227.9,465.1z"/>
		
			<linearGradient id="SVGID_45_" gradientUnits="userSpaceOnUse" x1="292.4" y1="-50727.75" x2="292.4" y2="-166206.3438" gradientTransform="matrix(1 0 0 1 0 -1558)">
			<stop  offset="0" style="stop-color:#00E0AB"/>
			<stop  offset="1" style="stop-color:#00182E"/>
		</linearGradient>
		<path fill="url(#SVGID_45_)" d="M312.7,372.5l-2.4,59.9l-0.1,0.1l-5,25c-1.2,0.4-2.5,0.8-3.7,1.2c-6.3,1.9-12.7,3.5-19.1,4.7
			c-0.7,0.1-1.5,0.3-2.2,0.4l-0.5,0.1c0,0,0,0-0.1,0c-2.2,0.4-4.5,0.7-6.7,1l-0.8,0.1l16.8-25.8l0.5-57.6L305,331l7.6,40.3
			L312.7,372.5z"/>
	</g>
</g>
</svg>
