<?xml version="1.0" encoding="utf-8"?>
<!-- Generator: Adobe Illustrator 26.0.0, SVG Export Plug-In . SVG Version: 6.00 Build 0)  -->
<svg version="1.1" id="Layer_1" xmlns="http://www.w3.org/2000/svg" xmlns:xlink="http://www.w3.org/1999/xlink" x="0px" y="0px"
	 viewBox="0 0 1477 643.7" enable-background="new 0 0 1477 643.7" xml:space="preserve">
<g transform="translate(0.000000,881.000000) scale(0.100000,-0.100000)">
	<path fill="#FFFFFF" d="M3704,8790.87c-76-38-119-131-95-209c26-88,117-150,202-138c177,24,218,266,59,347
		C3820,8816.87,3756,8815.87,3704,8790.87z"/>
	<path fill="#FFFFFF" d="M7315,8796.87c-40-17-87-67-102-108c-45-126,66-263,199-245c176,24,217,266,58,347
		C7425,8813.87,7359,8815.87,7315,8796.87z"/>
	<path fill="#FFFFFF" d="M10915,8796.87c-58-25-112-101-114-161c-4-107,105-206,210-192c177,24,218,266,59,347
		C11025,8813.87,10959,8815.87,10915,8796.87z"/>
	<path fill="#FFFFFF" d="M3145,8691.87c-108-27-175-113-175-223c1-125,95-218,220-218c59,0,102,16,149,56c89,75,95,230,13,317
		C3300,8678.87,3210,8707.87,3145,8691.87z"/>
	<path fill="#FFFFFF" d="M4323,8686.87c-58-19-99-50-128-100c-51-87-42-186,23-258c141-157,392-59,392,152c0,50-42,133-83,165
		c-35,26-114,56-146,54C4372,8699.87,4346,8693.87,4323,8686.87z"/>
	<path fill="#FFFFFF" d="M6745,8691.87c-108-27-175-113-175-223c1-125,95-218,220-218c59,0,102,16,149,56c89,75,95,230,13,317
		C6900,8678.87,6810,8707.87,6745,8691.87z"/>
	<path fill="#FFFFFF" d="M7923,8686.87c-58-19-99-50-128-100c-51-87-42-186,23-258c141-157,392-59,392,152c0,50-42,133-83,165
		c-35,26-114,56-146,54C7972,8699.87,7946,8693.87,7923,8686.87z"/>
	<path fill="#FFFFFF" d="M10345,8691.87c-108-27-175-113-175-223c1-125,95-218,220-218c59,0,102,16,149,56c89,75,95,230,13,317
		C10500,8678.87,10410,8707.87,10345,8691.87z"/>
	<path fill="#FFFFFF" d="M11523,8686.87c-162-51-215-252-95-369c146-142,382-42,382,163c0,50-42,133-83,165c-35,26-114,56-146,54
		C11572,8699.87,11546,8693.87,11523,8686.87z"/>
	<path fill="#FFFFFF" d="M2648,8316.87c-26-7-55-19-65-26c-83-64-123-134-123-219c0-76,17-125,63-177c187-213,523-26,447,248
		C2934,8269.87,2779,8353.87,2648,8316.87z"/>
	<path fill="#FFFFFF" d="M4770,8310.87c-118-40-196-172-172-289c22-105,93-184,192-211c131-37,277,44,316,176c42,144-36,286-179,329
		C4862,8334.87,4837,8334.87,4770,8310.87z"/>
	<path fill="#FFFFFF" d="M6248,8316.87c-26-7-55-19-65-26c-83-64-123-134-123-219c0-76,17-125,63-177c187-213,523-26,447,248
		C6534,8269.87,6379,8353.87,6248,8316.87z"/>
	<path fill="#FFFFFF" d="M8372,8312.87c-169-60-230-262-124-408c35-48,115-93,180-101c115-13,238,63,275,172
		C8774,8183.87,8576,8384.87,8372,8312.87z"/>
	<path fill="#FFFFFF" d="M9848,8316.87c-26-7-55-19-65-26c-83-64-123-134-123-219c0-76,17-125,63-177c187-213,523-26,447,248
		C10134,8269.87,9979,8353.87,9848,8316.87z"/>
	<path fill="#FFFFFF" d="M11972,8312.87c-169-60-230-262-124-408c35-48,115-93,180-101c115-13,238,63,275,172
		C12374,8183.87,12176,8384.87,11972,8312.87z"/>
	<path fill="#FFFFFF" d="M5153,7776.87c-129-42-223-182-210-310c8-80,43-150,99-201c143-128,371-92,461,73c110,202-19,435-247,448
		C5221,7788.87,5177,7784.87,5153,7776.87z"/>
	<path fill="#FFFFFF" d="M8753,7776.87c-129-42-223-182-210-310c17-165,145-280,310-279c44,1,74,8,122,32c279,138,193,549-119,567
		C8821,7788.87,8777,7784.87,8753,7776.87z"/>
	<path fill="#FFFFFF" d="M12353,7776.87c-52-17-116-63-149-108c-43-57-57-99-58-178c-1-63,3-84,27-132c75-153,251-213,402-139
		c279,138,193,549-119,567C12421,7788.87,12377,7784.87,12353,7776.87z"/>
	<path fill="#FFFFFF" d="M1900,7155.87c-96-27-170-88-217-180c-38-72-43-188-13-267c104-278,491-297,622-31c29,59,33,77,33,148
		c0,66-5,90-26,136C2225,7117.87,2058,7199.87,1900,7155.87z"/>
	<path fill="#FFFFFF" d="M5500,7155.87c-96-27-170-88-217-180c-38-72-43-188-13-267c104-278,491-297,622-31c29,59,33,77,33,148
		c0,66-5,90-26,136C5825,7117.87,5658,7199.87,5500,7155.87z"/>
	<path fill="#FFFFFF" d="M9100,7155.87c-244-68-332-367-163-555c162-180,448-140,555,77c29,59,33,77,33,148c0,66-5,90-26,136
		C9425,7117.87,9258,7198.87,9100,7155.87z"/>
	<path fill="#FFFFFF" d="M12700,7155.87c-146-41-241-161-248-315c-18-365,479-490,640-162c29,58,33,76,33,147c0,66-5,90-26,136
		C13025,7117.87,12858,7199.87,12700,7155.87z"/>
	<path fill="#FFFFFF" d="M2255,6457.87c-68-23-101-44-149-98c-161-179-50-458,196-494c66-10,170,23,225,70c25,21,55,62,74,100
		c29,58,31,70,27,142c-4,87-21,129-74,191C2487,6446.87,2348,6487.87,2255,6457.87z"/>
	<path fill="#FFFFFF" d="M5855,6457.87c-68-23-101-44-149-98c-161-179-50-458,196-494c66-10,170,23,225,70c25,21,55,62,74,100
		c29,58,31,70,27,142c-4,87-21,129-74,191C6087,6446.87,5948,6487.87,5855,6457.87z"/>
	<path fill="#FFFFFF" d="M9455,6457.87c-68-23-101-44-147-96c-105-116-103-279,4-396c83-91,190-121,305-86c88,26,143,72,184,156
		c29,58,31,70,27,142c-4,87-21,129-74,191C9687,6446.87,9548,6487.87,9455,6457.87z"/>
	<path fill="#FFFFFF" d="M13055,6457.87c-68-23-101-44-147-96c-105-116-103-279,4-396c146-161,397-123,495,74c13,27,18,59,18,126
		c0,105-23,163-88,222C13261,6455.87,13140,6485.87,13055,6457.87z"/>
	<path fill="#FFFFFF" d="M1166,5835.87c-185-66-230-312-81-443c51-45,100-62,179-62c70,0,119,20,169,68c78,75,104,175,72,272
		C1459,5808.87,1304,5884.87,1166,5835.87z"/>
	<path fill="#FFFFFF" d="M2623,5834.87c-52-19-119-82-144-137c-25-56-25-158,0-212c45-100,131-155,241-155c225,0,344,259,196,427
		C2842,5841.87,2729,5871.87,2623,5834.87z"/>
	<path fill="#FFFFFF" d="M4766,5835.87c-185-66-230-312-81-443c51-45,100-62,179-62c70,0,119,20,169,68c78,75,104,175,72,272
		C5059,5808.87,4904,5884.87,4766,5835.87z"/>
	<path fill="#FFFFFF" d="M6223,5834.87c-52-19-119-82-144-137c-25-56-25-158,0-212c45-100,131-155,241-155c181,0,300,166,248,344
		c-16,55-109,148-164,164C6350,5854.87,6275,5852.87,6223,5834.87z"/>
	<path fill="#FFFFFF" d="M8366,5835.87c-185-66-230-312-81-443c51-45,100-62,179-62c70,0,119,20,169,68c78,75,104,175,72,272
		C8659,5808.87,8504,5884.87,8366,5835.87z"/>
	<path fill="#FFFFFF" d="M9823,5834.87c-52-19-119-82-144-137c-25-56-25-158,0-212c45-100,131-155,241-155c181,0,300,166,248,344
		c-16,55-109,148-164,164C9950,5854.87,9875,5852.87,9823,5834.87z"/>
	<path fill="#FFFFFF" d="M11966,5835.87c-60-21-108-66-141-130c-68-135-15-289,120-351c60-28,156-32,213-9c82,35,150,128,159,220
		C12336,5751.87,12145,5899.87,11966,5835.87z"/>
	<path fill="#FFFFFF" d="M13423,5834.87c-52-19-119-82-144-137c-25-56-25-158,0-212c45-100,131-155,241-155c182,0,300,165,248,344
		c-16,55-109,148-164,164C13550,5854.87,13475,5852.87,13423,5834.87z"/>
	<path fill="#FFFFFF" d="M729,5396.87c-112-30-182-136-165-251c16-105,114-185,225-185c109,0,202,82,217,191
		C1027,5306.87,880,5437.87,729,5396.87z"/>
	<path fill="#FFFFFF" d="M3150,5400.87c-213-40-247-341-48-424c109-46,240,4,289,109C3466,5247.87,3325,5433.87,3150,5400.87z"/>
	<path fill="#FFFFFF" d="M4329,5396.87c-83-22-146-89-164-174c-19-92,32-194,117-236c144-72,306,14,325,172
		C4625,5310.87,4478,5436.87,4329,5396.87z"/>
	<path fill="#FFFFFF" d="M6750,5400.87c-213-40-247-341-48-424c109-46,240,4,289,109C7066,5247.87,6925,5433.87,6750,5400.87z"/>
	<path fill="#FFFFFF" d="M7929,5396.87c-83-22-146-89-164-174c-19-92,32-194,117-236c146-73,308,15,325,177
		C8222,5314.87,8077,5436.87,7929,5396.87z"/>
	<path fill="#FFFFFF" d="M10350,5400.87c-213-40-247-341-48-424c109-46,240,4,289,109C10666,5247.87,10525,5433.87,10350,5400.87z"
		/>
	<path fill="#FFFFFF" d="M11529,5396.87c-83-22-146-89-164-174c-19-92,32-194,117-236c148-74,308,14,325,177
		C11822,5314.87,11677,5436.87,11529,5396.87z"/>
	<path fill="#FFFFFF" d="M13950,5400.87c-213-40-247-341-48-424c109-46,240,4,289,109C14266,5247.87,14125,5433.87,13950,5400.87z"
		/>
	<path fill="#FFFFFF" d="M104,5190.87c-76-38-119-131-95-209c26-88,117-150,202-138c177,24,218,266,59,347
		C220,5216.87,156,5215.87,104,5190.87z"/>
	<path fill="#FFFFFF" d="M3715,5196.87c-40-17-87-67-102-108c-45-126,66-263,199-245c176,24,217,266,58,347
		C3825,5213.87,3759,5215.87,3715,5196.87z"/>
	<path fill="#FFFFFF" d="M7315,5196.87c-40-17-87-67-102-108c-45-126,66-263,199-245c176,24,217,266,58,347
		C7425,5213.87,7359,5215.87,7315,5196.87z"/>
	<path fill="#FFFFFF" d="M10915,5196.87c-103-45-143-176-81-268c79-118,243-114,314,7c33,57,28,148-11,199
		C11085,5202.87,10989,5229.87,10915,5196.87z"/>
	<path fill="#FFFFFF" d="M14515,5196.87c-70-32-121-120-110-192c26-176,254-221,343-69c33,57,28,148-11,199
		C14685,5202.87,14589,5229.87,14515,5196.87z"/>
	<path fill="#FFFFFF" d="M7917,4369.87c-432-44-669-273-743-717c-20-119-23-412-5-527c52-338,184-546,416-657
		c320-153,823-119,1079,74c159,120,258,319,268,543l3,70l-122,3l-123,3v-38c0-68-29-176-67-253c-96-195-282-290-570-290
		c-145,0-235,18-333,67c-204,100-301,301-316,653c-15,332,48,572,185,709c108,108,260,161,465,161c204,0,356-51,466-155
		c93-90,142-202,165-377l6-48h119c65,0,121,4,125,9c11,19-17,198-45,279c-105,309-367,477-775,495
		C8055,4376.87,7966,4374.87,7917,4369.87z"/>
	<path fill="#FFFFFF" d="M0,3375.87v-986l123,3l122,3l5,818l5,818l376-818l376-818l119-3l120-3l374,818c205,450,377,822,382,828
		c4,5,8-363,8-818v-827h120h120v985v985l-182-2l-183-3l-375-842c-206-464-377-843-381-843c-3,0-177,379-385,843l-379,842l-182,3
		l-183,2V3375.87z"/>
	<path fill="#FFFFFF" d="M2780,3375.87v-986l123,3l122,3v980v980l-122,3l-123,3V3375.87z"/>
	<path fill="#FFFFFF" d="M3565,4348.87c-3-7-4-449-3-983l3-970l533-3l532-2v100v100h-410h-410v885v885h-120
		C3603,4360.87,3568,4357.87,3565,4348.87z"/>
	<path fill="#FFFFFF" d="M5010,3375.87v-985l533,2l532,3l3,98l3,97h-416h-415v885v885h-120h-120V3375.87z"/>
	<path fill="#FFFFFF" d="M6445,4348.87c-3-7-4-449-3-983l3-970h120h120v980v980l-118,3C6479,4360.87,6448,4357.87,6445,4348.87z"/>
	<path fill="#FFFFFF" d="M9390,3375.87v-985h670h670v100v100h-550h-550v355v355h505h505v100v100h-505h-505v330v330h550h550v100v100
		h-670h-670V3375.87z"/>
	<path fill="#FFFFFF" d="M11180,3375.87v-986l123,3l122,3l5,834l5,834l605-836l604-837h148h148v985v985h-120h-120v-832
		c0-654-3-829-12-820c-7,7-278,380-603,830l-591,817l-157,3l-157,3V3375.87z"/>
	<path fill="#FFFFFF" d="M13307,4353.87c-4-3-7-48-7-100v-93h310h310v-885v-885h120h120v885v885h305h305v100v100h-728
		C13641,4360.87,13310,4357.87,13307,4353.87z"/>
</g>
</svg>
