<?xml version="1.0" encoding="utf-8"?>
<!-- Generator: Adobe Illustrator 25.4.1, SVG Export Plug-In . SVG Version: 6.00 Build 0)  -->
<svg version="1.1" id="Layer_2" xmlns="http://www.w3.org/2000/svg" xmlns:xlink="http://www.w3.org/1999/xlink" x="0px" y="0px"
	 viewBox="0 0 500 500" enable-background="new 0 0 500 500" xml:space="preserve">
<linearGradient id="SVGID_1_" gradientUnits="userSpaceOnUse" x1="0" y1="250" x2="500" y2="250">
	<stop  offset="0" style="stop-color:#5F56D1"/>
	<stop  offset="1" style="stop-color:#AF56D0"/>
</linearGradient>
<circle fill="url(#SVGID_1_)" cx="250" cy="250" r="250"/>
<path fill="#FFFFFF" d="M228,222.4c0-18.2-0.4-36.3,0.1-54.5c0.6-20.2,6.3-38.9,20.3-54c16.9-18.3,38.7-23.1,62.6-20.7
	c28,2.9,46.4,19.2,56.7,43.9c18.5,44.1,16.8,88-7.1,129.8c-19.2,33.4-49.6,51.2-87.1,57.4c-5,0.8-6.8,2.6-6.7,7.6
	c0.2,22,0.2,44,0,66c-0.2,15.2-15.6,24.4-28.7,17.1c-6.9-3.8-10-10-10-17.8c0-21.2,0-42.3,0-63.5c0-8.1,0-8-7.9-9.7
	c-26.4-5.7-49.7-17.3-68.7-36.7c-23.5-23.9-30.9-52.3-22.1-84.6c5.2-19.2,16.5-34,34.9-42.7c11.1-5.2,22.2-1.6,27.2,8.7
	c4.7,9.7,0.8,20.6-9.5,26.2c-13.4,7.3-19.8,23-16.5,39.9c2.8,14.5,11.9,24.7,23.1,33.3c10,7.8,21.3,13,33.6,16.2
	c5.1,1.4,5.9,0.8,5.9-4.6C228,260.7,228,241.5,228,222.4C228,222.4,228,222.4,228,222.4z M266.9,224.5c0,18.5,0,37,0,55.4
	c0,3.9,0.8,6,5.5,5c29.9-6.8,51.5-23.7,61.9-53c3.4-9.7,5.1-20.3,6-30.7c1.7-17.8-1.4-35.1-9.5-51.3c-9.5-19-27.7-21.1-43.3-16.1
	c-5.7,1.8-10.2,5.4-13.4,10.6c-5.5,8.6-6.9,18.3-7,28.2C266.7,189.9,266.9,207.2,266.9,224.5z"/>
</svg>
