<svg width="500" height="499" viewBox="0 0 500 499" fill="none" xmlns="http://www.w3.org/2000/svg">
<path d="M277.419 221.505H221.505V277.419H277.419V221.505Z" fill="#FF6648"/>
<path d="M55.914 0H0V55.914H55.914V0Z" fill="#FF6648"/>
<path d="M498.924 443.011H443.01V498.925H498.924V443.011Z" fill="#FF6648"/>
<path d="M332.258 111.828H221.505V166.666H332.258V277.419H388.172V165.591C388.172 135.484 363.44 111.828 334.408 111.828L332.258 111.828Z" fill="#FF6648"/>
<path d="M387.096 332.258C356.989 332.258 333.333 356.99 333.333 386.022V387.097V497.85H389.247V388.172H500V332.258H387.096V332.258Z" fill="#FF6648"/>
<path d="M110.753 0V110.753H0V166.667H111.828C141.935 166.667 165.591 141.935 165.591 112.903V111.828V0H110.753Z" fill="#FF6648"/>
<path d="M166.666 332.258V221.505H110.752V333.333C110.752 363.441 135.484 387.097 164.516 387.097H165.591H276.344V331.183H166.666V332.258Z" fill="#FF6648"/>
<path d="M55.914 443.01V221.505H0V444.086C0 474.193 24.7312 497.849 53.7634 497.849H54.8387H276.344V441.935H55.914V443.01Z" fill="#FF6648"/>
<path d="M443.01 0H221.505V55.914H443.01V277.419H498.924V53.7634C498.924 23.6559 474.193 0 445.161 0H443.01Z" fill="#FF6648"/>
</svg>
