<?xml version="1.0" encoding="utf-8"?>
<!-- Generator: Adobe Illustrator 25.3.1, SVG Export Plug-In . SVG Version: 6.00 Build 0)  -->
<svg version="1.1" id="Layer_1" xmlns="http://www.w3.org/2000/svg" xmlns:xlink="http://www.w3.org/1999/xlink" x="0px" y="0px"
	 viewBox="0 0 1262.1 1262.1" enable-background="new 0 0 1262.1 1262.1" xml:space="preserve">
<g>
	<path fill="#FFFFFF" d="M621.4,0c-0.1,326.8-0.3,653.7-0.4,980.5c-25.1-14.5-50.3-29.1-75.4-43.6V152.2L320,251.4l-113-64.5
		C345.1,124.6,483.2,62.3,621.4,0z"/>
	<polygon fill="#FFFFFF" points="634.8,980.5 709.2,936.9 709.2,149.7 937.3,252.6 1049,186.9 634.8,0 	"/>
	<path fill="#FFFFFF" d="M206.9,226.5c35.1,20.7,70.2,41.4,105.3,62.1c0.1,130.5,0.1,261.1,0.2,391.6
		c65.7,37.8,131.4,75.7,197.2,113.5c0.1,40.8,0.2,81.7,0.3,122.5c-101-58.2-202-116.4-303-174.6L206.9,226.5L206.9,226.5z"/>
	<path fill="#FFFFFF" d="M1049,226.5c-35.2,20.7-70.3,41.4-105.5,62.1c-0.1,130.5-0.1,261.1-0.2,391.6
		c-65.8,37.8-131.6,75.7-197.4,113.5c-0.1,40.8-0.2,81.7-0.3,122.5c101.1-58.2,202.2-116.4,303.3-174.6L1049,226.5L1049,226.5z"/>
</g>
<g>
	<path fill="#FFFFFF" d="M145.4,1123v27.2H89.8v111.9H61.9v-111.9H6.3V1123H145.4z"/>
	<path fill="#FFFFFF" d="M164.8,1122.6h97.6c5.9,0.8,11.4,2.6,16.6,5.3s9.6,6.2,13.3,10.5c3.7,4.2,6.7,9,8.8,14.2
		c2.2,5.2,3.2,10.7,3.2,16.3v2v2c0,3.8-0.5,7.6-1.6,11.5s-2.5,7.5-4.5,11s-4.3,6.6-7,9.5s-5.6,5.3-8.7,7.2l22.3,50.2H274l-18.6-42.3
		h-62.5v42.3h-28.2L164.8,1122.6L164.8,1122.6z M193,1191.6h62.5c2.9,0,5.6-0.5,8.1-1.6c2.5-1,4.8-2.5,6.8-4.4s3.5-4.1,4.6-6.6
		s1.7-5.2,1.7-8.2c0-2.7-0.6-5.4-1.8-7.9s-2.7-4.8-4.7-6.8s-4.2-3.5-6.8-4.7c-2.5-1.2-5.2-1.8-7.9-1.8H193L193,1191.6L193,1191.6z"
		/>
	<path fill="#FFFFFF" d="M378,1262.1c-6.8,0-13.2-1.3-19.1-3.8c-6-2.6-11.1-6-15.6-10.5s-7.9-9.6-10.5-15.6
		c-2.5-5.9-3.8-12.3-3.8-19.1v-90.5h27.4v90.5c0,3,0.5,5.8,1.7,8.3c1.1,2.6,2.7,4.8,4.6,6.7c2,1.9,4.2,3.4,6.9,4.4
		c2.6,1.1,5.4,1.6,8.4,1.6h41.5c3,0,5.8-0.5,8.4-1.6c2.6-1,4.9-2.5,6.9-4.4s3.5-4.1,4.6-6.7s1.7-5.3,1.7-8.3v-90.5h27.4v90.5
		c0,6.8-1.3,13.2-3.8,19.1s-6,11.1-10.5,15.6s-9.6,7.9-15.6,10.5s-12.3,3.8-19.1,3.8H378L378,1262.1z"/>
	<path fill="#FFFFFF" d="M590.6,1178.2c5.6,0,11,1.1,16.1,3.2c5.1,2.2,9.5,5.1,13.3,8.8c3.8,3.7,6.8,8.1,9.1,13.2s3.4,10.7,3.4,16.7
		c0,6.1-1.1,11.8-3.4,16.8s-5.4,9.5-9.2,13.2s-8.3,6.6-13.3,8.7s-10.3,3.1-16,3.1h-56.4c-5.9,0-11.4-1.1-16.5-3.2
		c-5.1-2.2-9.5-5.1-13.3-8.9s-6.8-8.2-8.9-13.3s-3.2-10.6-3.2-16.5h27.8c0,3.7,1.4,6.9,4.3,9.8s6.1,4.3,9.8,4.3h56.4
		c1.4,0,3-0.3,4.6-1s3.1-1.6,4.5-2.8c1.4-1.2,2.5-2.7,3.4-4.5s1.4-3.7,1.4-5.8c0-4.2-1.5-7.5-4.4-10.1s-6.1-3.8-9.5-3.8h-56.4
		c-6,0-11.6-1.1-16.8-3.3s-9.6-5.3-13.3-9.1c-3.7-3.8-6.6-8.3-8.7-13.3s-3.1-10.4-3.1-16.2c0-6,1.1-11.6,3.3-16.7
		c2.2-5.1,5.2-9.5,9-13.2s8.2-6.7,13.3-8.8c5.1-2.1,10.5-3.2,16.3-3.2h56.4c5.5,0,10.8,1.1,15.9,3.1c5.1,2.1,9.6,5,13.4,8.7
		s6.9,8.1,9.2,13.2s3.4,10.7,3.4,16.8h-28c0-2.1-0.4-4.1-1.3-5.9c-0.8-1.8-2-3.4-3.3-4.6s-2.9-2.2-4.5-2.9c-1.6-0.7-3.2-1.1-4.8-1.1
		h-56.4c-1.8,0-3.6,0.4-5.3,1.3c-1.7,0.8-3.2,2-4.5,3.3s-2.3,2.9-3.1,4.6s-1.2,3.5-1.2,5.3c0,3.8,1.4,7.1,4.2,9.8
		c2.8,2.7,6.1,4.1,9.9,4.1L590.6,1178.2L590.6,1178.2z"/>
	<path fill="#FFFFFF" d="M788.5,1123v27.2h-55.7v111.9H705v-111.9h-55.7V1123H788.5z"/>
	<path fill="#FFFFFF" d="M932.9,1137.1c4.4,4.6,7.9,9.8,10.4,15.7c2.5,5.9,3.7,12.2,3.7,19c0,6.7-1.3,12.9-3.8,18.8s-6,11-10.4,15.5
		c-4.4,4.4-9.5,7.9-15.5,10.5c-5.9,2.6-12.3,3.8-19.1,3.8h-62.7v41.7h-27.6V1123h90.3c6.8,0,13.1,1.2,19,3.7
		C923.1,1129.2,928.3,1132.7,932.9,1137.1z M913.1,1186.5c3.9-3.9,5.9-8.8,5.9-14.7c0-3.1-0.6-6-1.7-8.5c-1.1-2.6-2.7-4.8-4.6-6.7
		c-2-1.9-4.2-3.4-6.7-4.4s-5.1-1.6-7.8-1.6h-62.7v41.7h62.7C904.2,1192.3,909.2,1190.4,913.1,1186.5z"/>
	<path fill="#FFFFFF" d="M1011.6,1122.4h30.4l55.1,139.7h-30.2l-8.2-20.6h-63.1l-8.4,20.6H957L1011.6,1122.4z M1006.3,1213.1h41.3
		l-20.6-52.7L1006.3,1213.1z"/>
	<path fill="#FFFFFF" d="M1241.5,1137.5c4.4,4.2,7.9,9.2,10.5,15s3.8,12.2,3.8,19.3v41.7c0,6.7-1.3,13-3.9,18.9s-6.1,11.1-10.5,15.5
		s-9.5,7.8-15.4,10.4s-12.2,3.8-18.8,3.8h-90.3v-139.5h90.3c6.7,0,12.9,1.4,18.8,4.1S1237,1133,1241.5,1137.5z M1228.1,1171.8
		c0-2.7-0.6-5.4-1.8-7.9c-1.2-2.6-2.7-4.8-4.6-6.7c-1.9-1.9-4.1-3.4-6.7-4.6s-5.2-1.8-7.9-1.8h-62.5v83.5h62.5
		c2.9,0,5.6-0.6,8.1-1.7c2.6-1.1,4.8-2.7,6.7-4.6c1.9-2,3.4-4.2,4.5-6.7s1.7-5.1,1.7-7.8L1228.1,1171.8L1228.1,1171.8z"/>
</g>
</svg>
